# xmcd
#
# Track frame offsets:
#	150
#	16934
#	31151
#	38415
#	57497
#	82847
#	85499
#
# Disc length: 1228 seconds
#
# Revision: 0
# Processed by: cddbd v1.5.2PL0 Copyright (c) Steve Scherf et al.
# Submitted via: dBpowerAMP V4.0
#
DISCID=4404ca07
DTITLE=J Perkin - Exhibit
DYEAR=2000
DGENRE=
TTITLE0=Sexual Bore
TTITLE1=Night Woods
TTITLE2=1.000.000
TTITLE3='27'
TTITLE4=Sonar for Violence
TTITLE5=Logic
TTITLE6=Mountaineer
EXTD=
EXTT0=
EXTT1=
EXTT2=
EXTT3=
EXTT4=
EXTT5=
EXTT6=
PLAYORDER=
